<?xml version="1.0" standalone="no"?>
<!DOCTYPE svg PUBLIC "-//W3C//DTD SVG 20010904//EN"
 "http://www.w3.org/TR/2001/REC-SVG-20010904/DTD/svg10.dtd">
<svg version="1.0" xmlns="http://www.w3.org/2000/svg"
 width="253.000000pt" height="253.000000pt" viewBox="0 0 253.000000 253.000000"
 preserveAspectRatio="xMidYMid meet">
<metadata>
Created by potrace 1.14, written by Peter Selinger 2001-2017
</metadata>
<g transform="translate(0.000000,253.000000) scale(0.100000,-0.100000)"
fill="#000000" stroke="none">
<path d="M154 2313 c-1 -33 -14 -198 -19 -238 -2 -22 -7 -76 -10 -120 -3 -44
-8 -100 -10 -125 -5 -56 -14 -170 -30 -390 -6 -86 -15 -194 -20 -250 -2 -25
-7 -88 -10 -140 -4 -52 -8 -111 -10 -130 -2 -19 -6 -84 -10 -145 -3 -60 -8
-121 -10 -135 -2 -14 -7 -76 -10 -139 -4 -62 -8 -122 -10 -132 -2 -10 -1 -20
3 -23 9 -5 89 -14 207 -22 50 -3 93 -8 98 -11 4 -2 7 1 7 7 0 10 70 8 185 -5
169 -19 327 -24 332 -9 2 5 -31 30 -72 54 -81 46 -84 60 -12 60 20 0 37 1 37
3 0 2 -7 26 -15 54 -13 43 -22 55 -58 76 -47 29 -90 67 -112 101 -29 43 20 95
100 108 22 4 25 29 12 103 -8 43 -20 54 -57 55 -14 1 -38 7 -55 14 l-30 13 25
11 c14 6 43 16 66 22 22 5 41 16 41 22 1 31 15 143 19 147 2 3 -7 17 -22 32
l-25 27 30 10 c35 12 34 11 21 107 -25 176 -18 154 -51 160 -48 9 -110 28
-115 36 -8 14 34 29 91 32 l55 2 15 52 c8 28 15 53 15 56 0 2 -18 7 -41 11
-56 9 -99 33 -99 55 0 26 57 51 122 55 l53 3 7 39 c13 74 11 85 -16 78 -14 -3
-33 -1 -43 5 -14 8 -15 11 -3 11 8 1 24 3 35 5 59 12 159 2 171 -16 3 -5 -17
-9 -45 -9 -34 0 -51 -4 -52 -12 0 -7 -3 -34 -5 -59 l-5 -46 43 -7 c53 -9 128
-41 128 -56 0 -14 -50 -35 -120 -49 l-55 -11 3 -55 c4 -52 5 -55 30 -56 69 -2
141 -24 126 -39 -5 -5 -40 -14 -79 -20 -38 -6 -70 -12 -71 -13 -6 -6 -44 -241
-40 -245 3 -3 15 -10 27 -16 29 -14 26 -30 -6 -34 -30 -4 -31 -8 -24 -149 3
-57 6 -60 97 -78 46 -9 40 -23 -15 -30 -68 -9 -73 -11 -68 -37 19 -97 28 -128
38 -128 24 0 133 -58 156 -83 37 -41 31 -75 -23 -122 -45 -40 -45 -41 -35 -80
14 -50 28 -65 69 -71 46 -8 80 -22 80 -34 0 -5 -11 -16 -25 -25 -14 -8 -37
-22 -51 -31 -20 -12 -23 -18 -14 -29 6 -8 19 -13 28 -13 18 1 169 -10 237 -17
22 -2 87 -7 145 -10 58 -4 124 -8 147 -10 91 -6 162 57 149 133 -3 22 0 42 7
51 10 12 9 13 -2 6 -10 -5 -12 -4 -7 3 4 7 13 12 20 12 8 0 21 10 30 22 9 13
14 16 10 8 -3 -8 4 -3 17 11 41 46 95 80 115 73 14 -4 16 -3 5 4 -18 13 -6 32
20 32 12 0 17 4 14 11 -4 6 2 13 14 16 12 3 21 9 21 14 0 5 4 9 9 9 6 0 22 11
37 25 14 13 32 22 38 18 6 -3 8 -3 4 2 -4 4 -3 14 3 22 9 10 15 11 26 2 11 -9
12 -9 7 4 -5 15 31 44 49 39 4 -1 6 1 5 6 -5 12 78 82 96 82 10 0 14 5 11 10
-11 18 2 10 35 -20 102 -95 245 -4 243 155 -1 63 -24 110 -66 135 -54 33 -111
25 -166 -24 -17 -15 -25 -17 -28 -8 -3 6 -9 12 -14 12 -6 0 -7 -6 -3 -12 6
-10 4 -10 -7 0 -7 6 -24 12 -37 12 -13 0 -21 4 -17 10 4 7 -2 9 -18 5 -14 -4
-28 -2 -32 4 -3 6 -10 9 -15 6 -5 -3 -25 1 -45 9 -20 9 -39 15 -43 14 -4 -1
-22 2 -40 6 -21 5 -30 12 -25 19 5 8 2 8 -9 0 -8 -7 -18 -9 -22 -5 -7 7 -11 8
-37 11 -5 0 -7 7 -3 14 6 9 4 9 -8 -1 -11 -9 -18 -10 -23 -2 -3 5 -20 10 -36
10 -18 0 -32 6 -36 16 -3 10 -8 12 -12 5 -11 -18 -51 -1 -52 23 0 15 -2 17 -7
6 -10 -23 -32 -23 -32 0 0 11 -4 20 -10 20 -5 0 -7 -7 -4 -15 7 -17 -11 -21
-21 -5 -4 6 -12 7 -18 3 -8 -5 -8 -2 0 9 7 8 9 18 5 22 -4 4 -2 6 3 5 6 -2 28
5 50 15 74 33 150 60 159 58 5 -2 13 3 18 10 8 10 11 10 15 1 7 -19 24 -16 17
2 -5 11 -2 13 12 8 12 -4 15 -3 10 5 -5 8 0 12 13 12 11 0 23 5 26 10 3 6 12
10 18 10 7 0 6 -4 -3 -11 -12 -9 -12 -10 3 -5 10 3 21 6 23 6 3 0 2 5 -2 12
-5 8 -2 9 9 5 9 -3 23 0 31 8 20 20 29 19 22 -2 -5 -14 -2 -13 11 3 19 22 80
50 101 46 6 -2 12 2 12 9 0 6 8 9 20 6 11 -3 18 -1 15 3 -8 13 18 18 38 8 10
-5 14 -14 11 -20 -4 -7 -2 -8 5 -4 6 4 19 2 27 -5 23 -19 107 -16 138 4 78 51
85 191 15 272 -60 69 -147 71 -214 6 -39 -38 -41 -38 -67 -23 -16 9 -29 20
-29 24 -1 4 -2 12 -3 17 0 5 -4 13 -8 17 -4 3 -6 -3 -3 -14 2 -15 0 -19 -11
-15 -8 3 -14 13 -15 22 0 10 -2 11 -6 4 -7 -18 -43 3 -43 25 0 15 -2 15 -10 2
-8 -13 -13 -9 -12 10 0 3 -11 6 -26 7 -14 0 -32 9 -39 19 -7 10 -13 14 -13 10
0 -4 -18 3 -40 15 -21 12 -36 27 -33 32 3 5 0 7 -8 5 -16 -6 -67 19 -87 42 -8
8 -11 9 -7 3 4 -9 1 -11 -9 -7 -9 3 -13 10 -10 15 3 5 2 9 -3 10 -39 3 -147
62 -136 73 5 4 1 7 -7 6 -27 -4 -41 0 -35 9 3 5 -5 11 -17 13 -12 2 -23 9 -26
16 -2 8 2 10 15 6 17 -6 17 -6 -1 8 -10 8 -16 19 -13 25 3 5 -3 24 -13 41 -55
90 -214 86 -276 -8 -60 -90 -23 -206 72 -224 27 -6 30 -10 30 -39 -1 -17 -5
-35 -11 -39 -6 -5 -4 -8 5 -8 19 0 25 -100 7 -101 -7 0 -3 -4 8 -9 11 -5 14
-9 6 -9 -11 -1 -11 -4 0 -18 12 -15 12 -16 -1 -8 -12 6 -13 5 -2 -6 15 -16 16
-33 0 -23 -7 5 -8 3 -2 -7 15 -24 16 -62 2 -70 -9 -6 -7 -9 7 -9 17 0 17 -2 5
-10 -10 -6 -11 -10 -2 -10 6 0 12 -7 12 -16 0 -8 -4 -13 -9 -9 -5 3 -13 1 -16
-5 -4 -6 -3 -10 2 -9 20 3 25 -2 13 -16 -11 -13 -10 -15 6 -9 18 5 18 5 2 -9
-18 -15 -25 -33 -9 -23 5 3 11 -1 14 -8 7 -18 -18 -40 -34 -30 -8 4 -9 3 -5
-5 4 -6 3 -18 -3 -25 -45 -53 -42 -162 6 -224 15 -21 27 -40 26 -43 -1 -4 5
-6 15 -5 9 0 18 -7 20 -18 2 -11 0 -16 -6 -12 -6 3 -14 2 -17 -4 -4 -6 -3 -10
2 -9 37 6 45 -16 11 -32 l-23 -10 22 5 c19 3 22 0 21 -22 -1 -15 -6 -33 -12
-41 -8 -11 -8 -13 2 -7 7 4 12 2 13 -6 1 -7 2 -20 3 -28 1 -8 -3 -21 -9 -29
-8 -11 -7 -13 4 -7 10 7 12 4 7 -12 -4 -12 -2 -23 5 -28 9 -5 7 -11 -6 -21
-18 -13 -18 -13 1 -13 16 0 17 -2 4 -10 -10 -6 -11 -10 -2 -10 6 0 12 -7 12
-16 0 -14 -2 -15 -17 -3 -17 13 -17 13 0 -7 17 -20 24 -60 9 -50 -4 2 -8 -6
-8 -19 0 -12 5 -21 11 -19 7 3 11 -13 11 -43 1 -27 4 -71 8 -99 l6 -50 -40
-27 -40 -26 -24 47 c-34 67 -82 207 -112 326 -14 55 -35 128 -46 161 -27 76
-106 229 -156 304 l-38 58 31 22 c61 41 136 126 166 187 61 123 46 268 -39
399 -50 78 -65 89 -144 119 -106 40 -200 48 -285 25 -101 -27 -276 69 -276
151 0 16 -3 30 -6 31 -33 4 -59 7 -141 13 -52 4 -111 9 -130 12 -29 3 -36 1
-36 -13z m1380 -304 c-5 10 2 9 22 -5 16 -10 50 -30 76 -43 26 -14 44 -29 41
-34 -3 -4 3 -7 13 -5 11 2 18 -2 17 -9 -1 -6 5 -10 15 -8 24 4 54 -14 46 -27
-4 -7 -2 -8 5 -4 6 4 19 -1 29 -11 9 -11 13 -12 7 -3 -8 12 -6 12 10 -2 11 -9
22 -17 25 -17 16 0 39 -14 34 -22 -3 -5 1 -6 8 -4 8 3 23 -3 35 -14 11 -11 24
-17 29 -13 4 4 4 -2 0 -13 -6 -16 -5 -17 5 -8 10 10 15 9 26 -5 8 -9 12 -11 8
-5 -4 9 -1 11 9 7 9 -3 16 -9 16 -13 0 -4 15 -12 33 -19 18 -7 43 -21 55 -32
12 -11 24 -20 27 -20 19 1 23 -2 28 -19 2 -11 0 -25 -7 -32 -7 -9 -5 -9 7 1
10 7 16 19 13 26 -7 19 21 6 30 -14 4 -9 8 -19 8 -22 1 -3 5 -11 10 -18 7 -12
4 -12 -15 -1 -23 12 -23 11 -9 -6 9 -11 10 -16 3 -11 -7 4 -13 2 -13 -3 0 -6
-4 -11 -10 -11 -5 0 -7 7 -4 15 4 8 1 15 -5 15 -6 0 -10 -3 -10 -7 3 -20 -2
-34 -11 -28 -5 3 -10 1 -10 -4 0 -6 -3 -10 -7 -9 -9 1 -30 -6 -80 -28 -39 -17
-44 -17 -37 0 3 8 0 17 -7 22 -7 4 -10 3 -6 -4 12 -18 -4 -44 -24 -39 -11 3
-17 1 -14 -3 8 -13 -18 -18 -40 -7 -18 9 -19 9 -6 -7 13 -16 13 -17 0 -15 -13
2 -74 -20 -112 -42 -10 -5 -22 -7 -27 -4 -6 4 -10 1 -10 -5 0 -6 -5 -8 -10 -5
-6 3 -17 -1 -26 -10 -13 -13 -19 -13 -32 -3 -9 7 -13 8 -9 2 3 -6 -5 -16 -19
-23 -32 -14 -34 -14 -34 3 0 20 -58 76 -91 88 -18 6 -26 14 -22 21 4 7 0 7 -9
-1 -20 -16 -30 -2 -24 33 3 14 2 25 -2 25 -4 0 -8 18 -9 40 -1 29 2 38 10 33
7 -4 6 0 -2 10 -8 10 -15 47 -16 89 -2 40 -4 73 -5 73 -9 0 -6 41 3 47 8 5 8
8 1 8 -6 0 -12 17 -12 38 -1 20 -3 48 -4 61 -2 15 4 28 17 35 11 6 27 18 35
28 13 15 15 15 28 0 8 -10 10 -11 6 -3z m81 -840 c-6 11 -4 13 11 7 10 -5 25
-9 32 -9 6 0 12 -6 12 -13 0 -7 4 -16 10 -19 6 -3 7 1 4 9 -7 19 -10 19 51 0
28 -9 64 -18 80 -21 17 -3 32 -9 33 -14 2 -5 9 -6 15 -2 7 4 8 0 4 -13 -7 -18
-6 -18 6 -2 8 10 17 14 21 10 4 -4 12 -8 17 -8 5 -1 12 -3 17 -4 14 -4 27 -7
45 -8 10 -1 16 -6 13 -10 -3 -4 5 -8 17 -9 58 -1 67 -4 68 -20 0 -12 2 -13 6
-5 4 10 8 10 21 0 11 -9 14 -9 9 -1 -6 9 4 8 34 -2 23 -8 50 -15 60 -15 10 0
23 -9 30 -21 10 -19 9 -20 -13 -14 -20 5 -20 4 -5 -5 9 -6 17 -15 17 -21 0
-12 -50 -63 -50 -52 0 4 -5 0 -11 -9 -5 -10 -17 -18 -25 -18 -8 0 -12 -4 -9
-10 5 -9 -7 -14 -27 -11 -4 0 -10 -9 -13 -20 -5 -15 -10 -17 -20 -9 -10 8 -15
8 -21 -1 -4 -8 -3 -9 4 -5 25 15 11 -11 -17 -31 -20 -16 -31 -19 -39 -11 -8 8
-9 5 -6 -10 4 -15 0 -22 -18 -28 -12 -4 -27 -7 -31 -6 -5 1 -6 -2 -3 -7 8 -12
-20 -34 -33 -26 -7 3 -8 0 -5 -9 4 -11 0 -16 -10 -16 -9 0 -16 -5 -16 -11 0
-6 -9 -8 -22 -4 -16 4 -19 3 -10 -3 11 -7 8 -14 -13 -30 -15 -12 -31 -20 -35
-17 -4 3 -10 -5 -13 -17 -4 -12 -9 -20 -12 -17 -3 4 -22 -9 -41 -28 -21 -19
-43 -32 -51 -29 -8 3 -12 2 -9 -3 9 -13 -32 -44 -49 -37 -9 3 -13 11 -9 17 4
8 3 9 -5 5 -6 -4 -18 -2 -26 4 -8 7 -15 9 -16 4 -1 -5 -4 2 -8 16 -5 14 -4 33
2 44 6 13 6 16 -2 12 -6 -4 -11 0 -11 9 0 9 5 13 10 10 6 -3 10 -2 10 4 0 5
-5 11 -10 13 -6 2 -11 42 -13 90 -1 49 -5 88 -8 88 -3 0 -6 7 -6 15 0 10 6 14
16 10 14 -4 14 -3 0 8 -12 9 -16 27 -15 69 0 31 -2 54 -6 51 -5 -2 -8 1 -8 6
0 6 6 11 13 11 8 0 8 3 -2 9 -8 5 -11 16 -8 25 4 9 3 16 -2 16 -9 0 -8 31 3
48 4 6 2 12 -3 12 -6 0 -11 7 -11 16 0 8 4 13 9 9 5 -3 13 -1 16 5 4 6 1 9 -6
8 -6 -2 -14 3 -17 11 -2 8 0 11 6 7 6 -3 12 0 15 6 3 10 7 10 21 -1 14 -12 16
-12 10 3 -4 11 -1 16 10 16 9 0 16 5 16 11 0 8 6 7 17 -2 14 -12 16 -12 8 0z"/>
<path d="M1635 1940 c10 -11 20 -20 23 -20 3 0 -3 9 -13 20 -10 11 -20 20 -23
20 -3 0 3 -9 13 -20z"/>
<path d="M1726 1892 c-3 -5 1 -9 9 -9 8 0 12 4 9 9 -3 4 -7 8 -9 8 -2 0 -6 -4
-9 -8z"/>
<path d="M1471 1814 c0 -11 3 -14 6 -6 3 7 2 16 -1 19 -3 4 -6 -2 -5 -13z"/>
<path d="M1866 1789 c2 -4 13 -7 24 -6 23 2 17 10 -10 12 -10 1 -17 -2 -14 -6z"/>
<path d="M1479 1703 c-13 -16 -12 -17 4 -4 9 7 17 15 17 17 0 8 -8 3 -21 -13z"/>
<path d="M2053 1705 c0 -8 4 -12 9 -9 5 3 6 10 3 15 -9 13 -12 11 -12 -6z"/>
<path d="M2175 1630 c-3 -5 -1 -10 4 -10 6 0 11 5 11 10 0 6 -2 10 -4 10 -3 0
-8 -4 -11 -10z"/>
<path d="M2119 1583 c-13 -16 -12 -17 4 -4 9 7 17 15 17 17 0 8 -8 3 -21 -13z"/>
<path d="M2080 1570 c0 -5 5 -10 11 -10 5 0 7 5 4 10 -3 6 -8 10 -11 10 -2 0
-4 -4 -4 -10z"/>
<path d="M2020 1556 c0 -2 8 -10 18 -17 15 -13 16 -12 3 4 -13 16 -21 21 -21
13z"/>
<path d="M1753 1457 c0 -8 6 -14 14 -14 9 0 10 4 2 14 -6 7 -12 13 -14 13 -1
0 -2 -6 -2 -13z"/>
<path d="M1790 1449 c0 -5 5 -7 10 -4 6 3 10 8 10 11 0 2 -4 4 -10 4 -5 0 -10
-5 -10 -11z"/>
<path d="M1635 1150 c3 -5 8 -10 11 -10 2 0 4 5 4 10 0 6 -5 10 -11 10 -5 0
-7 -4 -4 -10z"/>
<path d="M1735 1121 c-3 -5 -2 -12 3 -15 5 -3 9 1 9 9 0 17 -3 19 -12 6z"/>
<path d="M1795 1110 c-3 -5 -1 -10 4 -10 6 0 11 5 11 10 0 6 -2 10 -4 10 -3 0
-8 -4 -11 -10z"/>
<path d="M1940 1070 c-12 -7 -10 -9 7 -7 12 0 19 5 17 9 -6 10 -6 10 -24 -2z"/>
<path d="M2133 1015 c0 -7 6 -11 14 -8 7 3 13 6 13 8 0 2 -6 5 -13 8 -8 3 -14
-1 -14 -8z"/>
<path d="M2093 1005 c0 -8 4 -12 9 -9 5 3 6 10 3 15 -9 13 -12 11 -12 -6z"/>
<path d="M2175 970 c-4 -6 -1 -9 7 -8 7 2 12 -2 11 -9 -2 -7 4 -10 13 -6 8 3
14 6 12 7 -2 1 -10 7 -20 14 -11 9 -18 10 -23 2z"/>
<path d="M1547 905 c6 -11 8 -25 6 -32 -2 -6 0 -14 5 -17 13 -8 6 45 -8 58
-10 8 -10 6 -3 -9z"/>
<path d="M2025 809 c-4 -6 -5 -12 -2 -15 2 -3 7 2 10 11 7 17 1 20 -8 4z"/>
<path d="M1813 645 c0 -7 6 -11 14 -8 7 3 13 6 13 8 0 2 -6 5 -13 8 -8 3 -14
-1 -14 -8z"/>
<path d="M1715 560 c-3 -5 -1 -10 4 -10 6 0 11 5 11 10 0 6 -2 10 -4 10 -3 0
-8 -4 -11 -10z"/>
<path d="M1638 503 c7 -3 16 -2 19 1 4 3 -2 6 -13 5 -11 0 -14 -3 -6 -6z"/>
<path d="M1730 2010 c-9 -6 -10 -10 -3 -10 6 0 15 5 18 10 8 12 4 12 -15 0z"/>
<path d="M1836 1947 c3 -10 9 -15 12 -12 3 3 0 11 -7 18 -10 9 -11 8 -5 -6z"/>
<path d="M1930 1890 c0 -5 5 -10 11 -10 5 0 7 5 4 10 -3 6 -8 10 -11 10 -2 0
-4 -4 -4 -10z"/>
<path d="M1335 1830 c-3 -6 1 -7 9 -4 18 7 21 14 7 14 -6 0 -13 -4 -16 -10z"/>
<path d="M2080 1810 c-9 -6 -10 -10 -3 -10 6 0 15 5 18 10 8 12 4 12 -15 0z"/>
<path d="M2195 1759 c-4 -6 -5 -12 -2 -15 2 -3 7 2 10 11 7 17 1 20 -8 4z"/>
<path d="M2200 1470 c-8 -5 -10 -10 -5 -10 6 0 17 5 25 10 8 5 11 10 5 10 -5
0 -17 -5 -25 -10z"/>
<path d="M1969 1373 c-13 -16 -12 -17 4 -4 9 7 17 15 17 17 0 8 -8 3 -21 -13z"/>
<path d="M1817 1343 c-10 -9 -9 -23 1 -23 5 0 9 7 9 15 0 17 -1 18 -10 8z"/>
<path d="M1750 1313 c0 -5 5 -15 10 -23 7 -12 9 -10 7 8 -1 19 -17 33 -17 15z"/>
<path d="M1703 1286 c0 -6 10 -11 23 -11 25 0 23 10 -4 17 -10 3 -19 0 -19 -6z"/>
<path d="M1661 1276 c-9 -11 -9 -16 0 -22 7 -4 9 -3 5 4 -3 6 2 15 11 21 10 6
13 11 7 11 -6 0 -17 -6 -23 -14z"/>
<path d="M1786 1252 c-3 -5 1 -9 9 -9 8 0 12 4 9 9 -3 4 -7 8 -9 8 -2 0 -6 -4
-9 -8z"/>
<path d="M1910 1189 c0 -5 5 -7 10 -4 6 3 10 8 10 11 0 2 -4 4 -10 4 -5 0 -10
-5 -10 -11z"/>
<path d="M1945 1190 c-3 -6 1 -7 9 -4 18 7 21 14 7 14 -6 0 -13 -4 -16 -10z"/>
<path d="M1995 1170 c-3 -5 -1 -10 4 -10 6 0 11 5 11 10 0 6 -2 10 -4 10 -3 0
-8 -4 -11 -10z"/>
<path d="M2030 1176 c0 -2 7 -7 16 -10 8 -3 12 -2 9 4 -6 10 -25 14 -25 6z"/>
<path d="M2075 1150 c3 -5 8 -10 11 -10 2 0 4 5 4 10 0 6 -5 10 -11 10 -5 0
-7 -4 -4 -10z"/>
<path d="M2136 1137 c3 -10 9 -15 12 -12 3 3 0 11 -7 18 -10 9 -11 8 -5 -6z"/>
<path d="M2203 818 c-20 -26 -22 -35 -8 -35 8 0 12 4 9 9 -3 5 0 15 6 23 7 8
10 15 7 15 -2 0 -9 -6 -14 -12z"/>
<path d="M1426 688 c3 -5 10 -6 15 -3 13 9 11 12 -6 12 -8 0 -12 -4 -9 -9z"/>
<path d="M1405 630 c-3 -6 1 -7 9 -4 18 7 21 14 7 14 -6 0 -13 -4 -16 -10z"/>
<path d="M1440 561 c0 -6 4 -13 10 -16 6 -3 7 1 4 9 -7 18 -14 21 -14 7z"/>
<path d="M1810 501 c0 -7 -5 -9 -12 -5 -7 5 -8 3 -3 -5 5 -9 10 -10 18 -2 6 6
8 14 4 18 -4 3 -7 1 -7 -6z"/>
<path d="M1746 432 c-3 -5 1 -9 9 -9 8 0 12 4 9 9 -3 4 -7 8 -9 8 -2 0 -6 -4
-9 -8z"/>
</g>
</svg>
